<svg height="471pt" viewBox="0 -30 471.46 471" width="471pt" xmlns="http://www.w3.org/2000/svg"><path d="m211.089844 287.671875-32.789063 1.007813c-5.496093.167968-10.828125-1.882813-14.796875-5.691407-3.96875-3.804687-6.234375-9.050781-6.292968-14.546875l-.402344-40.632812h-36.136719l35.828125-56.6875c0-44.511719 42.308594-80.769532 88.949219-80.769532 37.0625 0 72.890625 22.699219 84.320312 54.238282 10.5 21.519531-.308593 71.628906-3.5 100.519531l-.429687 76.929687-114.730469 1.480469v-35.320312zm86.640625-78.152344 5.949219-15.429687-6.898438-5.960938c.679688-5.222656.539062-10.519531-.410156-15.699218l6.640625-6.359376-6.640625-15.160156-9.199219.679688c-3.136719-4.242188-6.984375-7.90625-11.371094-10.828125l.269531-9.210938-15.429687-5.949219-5.960937 6.898438c-5.222657-.679688-10.519532-.539062-15.699219.410156l-6.359375-6.628906-15.160156 6.628906.667968 9.199219c-4.234375 3.140625-7.898437 6.988281-10.828125 11.371094l-9.199219-.269531-5.960937 15.429687 6.910156 5.960937c-.683593 5.222657-.546875 10.519532.398438 15.699219l-6.628907 6.359375 6.628907 15.160156 9.210937-.671874c3.132813 4.242187 6.980469 7.90625 11.371094 10.832031l-.269531 9.199219 15.429687 5.960937 5.949219-6.910156c5.226563.683593 10.523437.546875 15.710937-.402344l6.359376 6.632813 15.160156-6.632813-.679688-9.207031c4.242188-3.132813 7.90625-6.980469 10.828125-11.371094zm0 0" fill="#00efd1"/><path d="m303.679688 194.089844-5.949219 15.429687-9.210938-.269531c-2.921875 4.390625-6.585937 8.238281-10.828125 11.371094l.679688 9.207031-15.160156 6.632813-6.359376-6.632813c-5.1875.949219-10.484374 1.085937-15.710937.402344l-5.949219 6.910156-15.429687-5.960937.269531-9.199219c-4.390625-2.925781-8.238281-6.589844-11.371094-10.832031l-9.210937.671874-6.628907-15.160156 6.628907-6.359375c-.945313-5.179687-1.082031-10.476562-.398438-15.699219l-6.910156-5.960937 5.960937-15.429687 9.199219.269531c2.929688-4.382813 6.59375-8.230469 10.828125-11.371094l-.667968-9.199219 15.160156-6.628906 6.359375 6.628906c5.179687-.949218 10.476562-1.089844 15.699219-.410156l5.960937-6.898438 15.429687 5.949219-.269531 9.210938c4.386719 2.921875 8.234375 6.585937 11.371094 10.828125l9.199219-.679688 6.640625 15.160156-6.640625 6.359376c.949218 5.179687 1.089844 10.476562.410156 15.699218zm-30.378907-12.71875c0-14.023438-11.367187-25.390625-25.390625-25.390625-14.023437 0-25.390625 11.367187-25.390625 25.390625 0 14.019531 11.367188 25.390625 25.390625 25.390625 14.023438-.003907 25.386719-11.371094 25.390625-25.390625zm0 0" fill="#00acea"/><path d="m273.300781 181.371094c0 14.019531-11.367187 25.390625-25.390625 25.390625-14.023437 0-25.390625-11.371094-25.390625-25.390625 0-14.023438 11.367188-25.390625 25.390625-25.390625 14.023438 0 25.390625 11.367187 25.390625 25.390625zm0 0" fill="#00efd1"/><path d="m235.390625 411.570312c-27.53125 0-56.207031-7.363281-82.929687-21.300781-27.589844-14.40625-51.515626-34.933593-69.953126-60.007812-2.613281-3.5625-1.839843-8.570313 1.726563-11.179688 3.5625-2.613281 8.570313-1.839843 11.179687 1.726563 16.984376 23.097656 39.03125 42.003906 64.445313 55.273437 24.445313 12.746094 50.5625 19.484375 75.53125 19.484375 38.300781 0 78.738281-15.84375 110.953125-43.464844 35.316406-30.203124 57.847656-72.683593 63.046875-118.859374.5-4.390626 4.464844-7.546876 8.855469-7.046876s7.542968 4.464844 7.042968 8.855469c-5.648437 50.191407-30.144531 96.371094-68.53125 129.199219-35.070312 30.074219-79.308593 47.320312-121.367187 47.320312zm0 0" fill="#f4b844"/><path d="m54.128906 185.648438c-2.277344.003906-4.453125-.964844-5.972656-2.664063-1.519531-1.703125-2.242188-3.96875-1.984375-6.234375 5.648437-50.195312 30.144531-96.371094 68.53125-129.199219 35.070313-30.074219 79.308594-47.320312 121.367187-47.320312 27.53125 0 56.207032 7.363281 82.929688 21.300781 27.585938 14.40625 51.515625 34.933594 69.953125 60.007812 2.613281 3.5625 1.839844 8.570313-1.726563 11.179688-3.566406 2.613281-8.570312 1.839844-11.179687-1.726562-16.988281-23.097657-39.03125-42.003907-64.445313-55.273438-24.445312-12.75-50.566406-19.488281-75.53125-19.488281-38.300781 0-78.738281 15.839843-110.953124 43.464843-35.316407 30.199219-57.851563 72.683594-63.046876 118.859376-.460937 4.039062-3.875 7.089843-7.941406 7.09375zm0 0" fill="#f4b844"/><g fill="#fedb41"><path d="m418.648438 151.738281 52.8125 80.53125h-105.621094zm0 0"/><path d="m105.621094 179.53125-52.8125 80.527344-52.808594-80.527344zm0 0"/></g></svg>